<?xml version="1.0" encoding="UTF-8"?>
<svg width="16px" height="16px" viewBox="0 0 16 16" version="1.1" xmlns="http://www.w3.org/2000/svg" xmlns:xlink="http://www.w3.org/1999/xlink">
    <!-- Generator: Sketch 53.2 (72643) - https://sketchapp.com -->
    <title>Group 8 Copy 14@3x</title>
    <desc>Created with Sketch.</desc>
    <g id="Page-1" stroke="none" stroke-width="1" fill="none" fill-rule="evenodd">
        <g id="Group-8-Copy-14">
            <rect id="Rectangle-Copy-6" fill="#CEEBBE" transform="translate(13.000000, 7.500000) rotate(90.000000) translate(-13.000000, -7.500000) " x="6.5" y="6.5" width="13" height="2" rx="1"></rect>
            <rect id="Rectangle-Copy-4" fill="#429000" x="2" y="1" width="12" height="3" rx="1.5"></rect>
            <rect id="Rectangle-Copy-5" fill="#429000" x="0" y="12" width="13" height="3" rx="1.5"></rect>
            <polygon id="Triangle" stroke="#000000" stroke-width="0.25" fill="#57BB02" transform="translate(1.500000, 2.500000) rotate(-90.000000) translate(-1.500000, -2.500000) " points="1.5 1 3 4 0 4"></polygon>
            <rect id="Rectangle" stroke="#000000" stroke-width="0.25" fill="#429000" x="0.125" y="12.125" width="2.75" height="2.75" rx="1"></rect>
            <polygon id="Triangle-Copy-4" stroke="#000000" stroke-width="0.25" fill="#57BB02" transform="translate(13.500000, 13.500000) rotate(90.000000) translate(-13.500000, -13.500000) " points="13.5 12 15 15 12 15"></polygon>
            <rect id="Rectangle-Copy-13" stroke="#000000" stroke-width="0.25" fill="#57BB02" x="12.125" y="1.125" width="2.75" height="2.75" rx="1"></rect>
            <polygon id="Triangle-Copy-6" stroke="#000000" stroke-width="0.25" fill="#429000" transform="translate(1.500000, 2.500000) rotate(-90.000000) translate(-1.500000, -2.500000) " points="1.5 1 3 4 0 4"></polygon>
            <polygon id="Triangle-Copy-5" stroke="#000000" stroke-width="0.25" fill="#429000" transform="translate(13.500000, 13.500000) rotate(90.000000) translate(-13.500000, -13.500000) " points="13.5 12 15 15 12 15"></polygon>
            <rect id="Rectangle-Copy-18" stroke="#FF0000" stroke-width="0.25" fill="#FE69B4" x="11.125" y="0.125" width="4.75" height="4.75" rx="1"></rect>
        </g>
    </g>
</svg>