<?xml version="1.0" encoding="UTF-8"?>
<svg width="14px" height="16px" viewBox="0 0 14 16" version="1.1" xmlns="http://www.w3.org/2000/svg" xmlns:xlink="http://www.w3.org/1999/xlink">
    <!-- Generator: Sketch 53.2 (72643) - https://sketchapp.com -->
    <title>Group 8 Copy 18@3x</title>
    <desc>Created with Sketch.</desc>
    <g id="Page-1" stroke="none" stroke-width="1" fill="none" fill-rule="evenodd">
        <g id="Group-8-Copy-18">
            <rect id="Rectangle-Copy-6" fill="#CEEBBE" transform="translate(13.000000, 8.000000) rotate(90.000000) translate(-13.000000, -8.000000) " x="6" y="7" width="14" height="2" rx="1"></rect>
            <rect id="Rectangle-Copy-4" fill="#429000" x="2" y="1" width="12" height="3" rx="1.5"></rect>
            <rect id="Rectangle-Copy-5" fill="#429000" x="0" y="12" width="14" height="3" rx="1.5"></rect>
            <polygon id="Triangle" stroke="#000000" stroke-width="0.25" fill="#429000" transform="translate(1.500000, 2.500000) rotate(-90.000000) translate(-1.500000, -2.500000) " points="1.5 1 3 4 0 4"></polygon>
            <rect id="Rectangle" stroke="#000000" stroke-width="0.25" fill="#429000" x="0.125" y="12.125" width="2.75" height="2.75" rx="1"></rect>
            <g id="Group-6-Copy-2" transform="translate(5.000000, 11.000000)" fill="#FE69B4" stroke="#FE69B4" stroke-width="0.25">
                <path d="M-0.258284534,2.22742975 L5.22742975,2.22742975 C5.36944583,2.22742975 5.48457261,2.34255653 5.48457261,2.48457261 L5.48457261,2.48457261 C5.48457261,2.62658869 5.36944583,2.74171547 5.22742975,2.74171547 L-0.258284534,2.74171547 C-0.400300612,2.74171547 -0.515427391,2.62658869 -0.515427391,2.48457261 L-0.515427391,2.48457261 C-0.515427391,2.34255653 -0.400300612,2.22742975 -0.258284534,2.22742975 Z" id="Rectangle" transform="translate(2.484573, 2.484573) rotate(45.000000) translate(-2.484573, -2.484573) "></path>
                <path d="M-0.267983409,2.21773088 L5.21773088,2.21773088 C5.35974696,2.21773088 5.47487373,2.33285766 5.47487373,2.47487373 L5.47487373,2.47487373 C5.47487373,2.61688981 5.35974696,2.73201659 5.21773088,2.73201659 L-0.267983409,2.73201659 C-0.409999487,2.73201659 -0.525126266,2.61688981 -0.525126266,2.47487373 L-0.525126266,2.47487373 C-0.525126266,2.33285766 -0.409999487,2.21773088 -0.267983409,2.21773088 Z" id="Rectangle-Copy-3" transform="translate(2.474874, 2.474874) rotate(-45.000000) translate(-2.474874, -2.474874) "></path>
            </g>
            <g id="Group-6-Copy-4" transform="translate(5.000000, 0.000000)" fill="#FE69B4" stroke="#FE69B4" stroke-width="0.25">
                <path d="M-0.258284534,2.22742975 L5.22742975,2.22742975 C5.36944583,2.22742975 5.48457261,2.34255653 5.48457261,2.48457261 L5.48457261,2.48457261 C5.48457261,2.62658869 5.36944583,2.74171547 5.22742975,2.74171547 L-0.258284534,2.74171547 C-0.400300612,2.74171547 -0.515427391,2.62658869 -0.515427391,2.48457261 L-0.515427391,2.48457261 C-0.515427391,2.34255653 -0.400300612,2.22742975 -0.258284534,2.22742975 Z" id="Rectangle" transform="translate(2.484573, 2.484573) rotate(45.000000) translate(-2.484573, -2.484573) "></path>
                <path d="M-0.267983409,2.21773088 L5.21773088,2.21773088 C5.35974696,2.21773088 5.47487373,2.33285766 5.47487373,2.47487373 L5.47487373,2.47487373 C5.47487373,2.61688981 5.35974696,2.73201659 5.21773088,2.73201659 L-0.267983409,2.73201659 C-0.409999487,2.73201659 -0.525126266,2.61688981 -0.525126266,2.47487373 L-0.525126266,2.47487373 C-0.525126266,2.33285766 -0.409999487,2.21773088 -0.267983409,2.21773088 Z" id="Rectangle-Copy-3" transform="translate(2.474874, 2.474874) rotate(-45.000000) translate(-2.474874, -2.474874) "></path>
            </g>
        </g>
    </g>
</svg>