<?xml version="1.0" encoding="UTF-8"?>
<svg width="14px" height="25px" viewBox="0 0 14 25" version="1.1" xmlns="http://www.w3.org/2000/svg" xmlns:xlink="http://www.w3.org/1999/xlink">
    <!-- Generator: Sketch 53.2 (72643) - https://sketchapp.com -->
    <title>Group 8 Copy 19@3x</title>
    <desc>Created with Sketch.</desc>
    <g id="Page-1" stroke="none" stroke-width="1" fill="none" fill-rule="evenodd">
        <g id="Group-8-Copy-19">
            <rect id="Rectangle-Copy-6" fill="#CEEBBE" transform="translate(13.000000, 12.000000) rotate(90.000000) translate(-13.000000, -12.000000) " x="6" y="11" width="14" height="2" rx="1"></rect>
            <rect id="Rectangle-Copy-4" fill="#429000" x="2" y="5" width="12" height="3" rx="1.5"></rect>
            <rect id="Rectangle-Copy-5" fill="#429000" x="0" y="16" width="14" height="3" rx="1.5"></rect>
            <polygon id="Triangle" stroke="#000000" stroke-width="0.25" fill="#429000" transform="translate(1.500000, 6.500000) rotate(-90.000000) translate(-1.500000, -6.500000) " points="1.5 5 3 8 0 8"></polygon>
            <rect id="Rectangle" stroke="#000000" stroke-width="0.25" fill="#429000" x="0.125" y="16.125" width="2.75" height="2.75" rx="1"></rect>
            <path d="M7.24914115,6.46892333 C7.24721332,6.47077729 7.24532702,6.47263704 7.24347909,6.47450035 C7.2486797,6.46925646 7.25483899,6.46245099 7.26187667,6.45413381 Z M7.56427288,5.98455339 C7.66249131,5.81132966 7.77443182,5.60031298 7.89920168,5.35257764 C8.02025401,5.11222361 8.13570583,4.86908959 8.24546387,4.62337201 L9.27220951,2.32477952 C9.34141772,2.16984166 9.3771883,2.00205505 9.3771883,1.83236263 C9.3771883,1.16555466 8.83663364,0.625 8.16982567,0.625 C7.9939619,0.625 7.9939619,0.625 7.81809813,0.625 C7.64223436,0.625 7.64223436,0.625 7.46637059,0.625 C7.29381841,0.625 7.29381841,0.625 7.12126622,0.625 C6.94871404,0.625 6.94871404,0.625 6.77616186,0.625 C6.59557169,0.625 6.41750628,0.66741797 6.25631129,0.748836546 C5.68789096,1.03594209 5.45984026,1.72948284 5.7469458,2.29790317 L6.83737743,4.45677307 C6.96790557,4.71519668 7.09239099,4.97662993 7.2107325,5.24086019 C7.34311684,5.53644575 7.46132642,5.78482479 7.56427288,5.98455339 Z" id="Rectangle" stroke="#FE69B4" stroke-width="1.25"></path>
            <path d="M7.24914115,24.4689233 C7.24721332,24.4707773 7.24532702,24.472637 7.24347909,24.4745003 C7.2486797,24.4692565 7.25483899,24.462451 7.26187667,24.4541338 Z M7.56427288,23.9845534 C7.66249131,23.8113297 7.77443182,23.600313 7.89920168,23.3525776 C8.02025401,23.1122236 8.13570583,22.8690896 8.24546387,22.623372 L9.27220951,20.3247795 C9.34141772,20.1698417 9.3771883,20.002055 9.3771883,19.8323626 C9.3771883,19.1655547 8.83663364,18.625 8.16982567,18.625 C7.81809813,18.625 7.81809813,18.625 7.46637059,18.625 C7.12126622,18.625 7.12126622,18.625 6.77616186,18.625 C6.59557169,18.625 6.41750628,18.667418 6.25631129,18.7488365 C5.68789096,19.0359421 5.45984026,19.7294828 5.7469458,20.2979032 L6.83737743,22.4567731 C6.96790557,22.7151967 7.09239099,22.9766299 7.2107325,23.2408602 C7.34311684,23.5364458 7.46132642,23.7848248 7.56427288,23.9845534 Z" id="Rectangle-Copy-19" stroke="#FE69B4" stroke-width="1.25" transform="translate(7.500000, 21.500000) rotate(180.000000) translate(-7.500000, -21.500000) "></path>
        </g>
    </g>
</svg>