<?xml version="1.0" encoding="UTF-8"?>
<svg width="14px" height="25px" viewBox="0 0 14 25" version="1.1" xmlns="http://www.w3.org/2000/svg" xmlns:xlink="http://www.w3.org/1999/xlink">
    <!-- Generator: Sketch 53.2 (72643) - https://sketchapp.com -->
    <title>Group 8 Copy 19@3x</title>
    <desc>Created with Sketch.</desc>
    <g id="Page-1" stroke="none" stroke-width="1" fill="none" fill-rule="evenodd">
        <g id="Group-8-Copy-19">
            <rect id="Rectangle-Copy-6" fill="#CEEBBE" transform="translate(13.000000, 12.000000) rotate(90.000000) translate(-13.000000, -12.000000) " x="6" y="11" width="14" height="2" rx="1"></rect>
            <rect id="Rectangle-Copy-4" fill="#429000" x="2" y="5" width="12" height="3" rx="1.5"></rect>
            <rect id="Rectangle-Copy-5" fill="#429000" x="0" y="16" width="14" height="3" rx="1.5"></rect>
            <polygon id="Triangle" stroke="#000000" stroke-width="0.25" fill="#429000" transform="translate(1.500000, 6.500000) rotate(-90.000000) translate(-1.500000, -6.500000) " points="1.5 5 3 8 0 8"></polygon>
            <rect id="Rectangle" stroke="#000000" stroke-width="0.25" fill="#429000" x="0.125" y="16.125" width="2.75" height="2.75" rx="1"></rect>
            <path d="M7.33814978,6.55684349 C7.33606665,6.55874433 7.33409887,6.56064022 7.33223295,6.56252167 C7.3376533,6.5570562 7.34364536,6.55057759 7.35017438,6.54310741 Z M7.55921368,6.24020778 C7.68342964,6.03661022 7.83462434,5.75869123 8.01084198,5.40880436 C8.13276519,5.16672115 8.2490476,4.92183797 8.35959523,4.67435272 L9.3863409,2.37576016 C9.46271434,2.20478136 9.5021883,2.01962355 9.5021883,1.83236263 C9.5021883,1.09651907 8.90566923,0.5 8.16982567,0.5 C7.9939619,0.5 7.9939619,0.5 7.81809813,0.5 C7.64223436,0.5 7.64223436,0.5 7.46637059,0.5 C7.29381841,0.5 7.29381841,0.5 7.12126622,0.5 C6.94871404,0.5 6.94871404,0.5 6.77616186,0.5 C6.57599429,0.5 6.37862518,0.547016413 6.19995539,0.637261405 C5.5699138,0.955491453 5.31714061,1.7242175 5.63537066,2.35425908 L6.72580229,4.51312898 C6.85545441,4.76981822 6.97910437,5.02949691 7.09665162,5.29195376 C7.27743531,5.69560457 7.43234259,6.01264437 7.55921368,6.24020778 Z" id="Rectangle" stroke="#FE69B4"></path>
            <path d="M7.33814978,24.5568435 C7.33606665,24.5587443 7.33409887,24.5606402 7.33223295,24.5625217 C7.3376533,24.5570562 7.34364536,24.5505776 7.35017438,24.5431074 Z M7.55921368,24.2402078 C7.68342964,24.0366102 7.83462434,23.7586912 8.01084198,23.4088044 C8.13276519,23.1667212 8.2490476,22.921838 8.35959523,22.6743527 L9.3863409,20.3757602 C9.46271434,20.2047814 9.5021883,20.0196235 9.5021883,19.8323626 C9.5021883,19.0965191 8.90566923,18.5 8.16982567,18.5 C7.81809813,18.5 7.81809813,18.5 7.46637059,18.5 C7.12126622,18.5 7.12126622,18.5 6.77616186,18.5 C6.57599429,18.5 6.37862518,18.5470164 6.19995539,18.6372614 C5.5699138,18.9554915 5.31714061,19.7242175 5.63537066,20.3542591 L6.72580229,22.513129 C6.85545441,22.7698182 6.97910437,23.0294969 7.09665162,23.2919538 C7.27743531,23.6956046 7.43234259,24.0126444 7.55921368,24.2402078 Z" id="Rectangle-Copy-19" stroke="#FE69B4" transform="translate(7.500000, 21.500000) rotate(180.000000) translate(-7.500000, -21.500000) "></path>
        </g>
    </g>
</svg>