<?xml version="1.0" encoding="UTF-8"?>
<svg width="30px" height="31px" viewBox="0 0 30 31" version="1.1" xmlns="http://www.w3.org/2000/svg" xmlns:xlink="http://www.w3.org/1999/xlink">
    <!-- Generator: Sketch 53.2 (72643) - https://sketchapp.com -->
    <title>Group 8 Copy 20@3x</title>
    <desc>Created with Sketch.</desc>
    <g id="Page-1" stroke="none" stroke-width="1" fill="none" fill-rule="evenodd">
        <g id="Group-8-Copy-20" transform="translate(-1.000000, 1.000000)">
            <path d="M16,13 L42,13 C43.1045695,13 44,13.8954305 44,15 L44,15 C44,16.1045695 43.1045695,17 42,17 L16,17 C14.8954305,17 14,16.1045695 14,15 L14,15 C14,13.8954305 14.8954305,13 16,13 Z" id="Rectangle-Copy-6" fill="#CEEBBE" transform="translate(29.000000, 15.000000) rotate(90.000000) translate(-29.000000, -15.000000) "></path>
            <rect id="Rectangle-Copy-4" fill="#429000" x="5" y="0" width="26" height="6" rx="3"></rect>
            <rect id="Rectangle-Copy-5" fill="#429000" x="1" y="24" width="30" height="6" rx="3"></rect>
            <polygon id="Triangle" stroke="#000000" stroke-width="0.25" fill="#429000" transform="translate(4.000000, 3.000000) rotate(-90.000000) translate(-4.000000, -3.000000) " points="4 0 7 6 1 6"></polygon>
            <rect id="Rectangle" stroke="#000000" stroke-width="0.25" fill="#429000" x="1.125" y="24.125" width="5.75" height="5.75" rx="1"></rect>
            <text id="b" font-family="MicrosoftSansSerif, Microsoft Sans Serif" font-size="7" font-weight="normal" fill="#FE69B4">
                <tspan x="4" y="17">b</tspan>
            </text>
            <g id="Group-10-Copy" transform="translate(4.942964, 7.942964) rotate(-42.000000) translate(-4.942964, -7.942964) translate(1.442964, 4.442964)" fill="#000000">
                <polygon id="Rectangle-Copy-14" transform="translate(4.026707, 2.205637) rotate(87.000000) translate(-4.026707, -2.205637) " points="2.31466916 1.83442346 5.73633615 1.84501795 5.73874398 2.57685145 2.31707699 2.56625697"></polygon>
                <polygon id="Rectangle-Copy-15" transform="translate(5.306457, 0.700000) rotate(-6.000000) translate(-5.306457, -0.700000) " points="3.69798838 0.321899245 6.91971542 0.300826353 6.91492613 1.07810076 3.69319909 1.09917365"></polygon>
                <polygon id="Rectangle-Copy-17" transform="translate(1.533653, 5.224789) rotate(87.000000) translate(-1.533653, -5.224789) " points="-0.178384204 4.85357454 3.24328278 4.86416902 3.24569062 5.59600253 -0.175976367 5.58540805"></polygon>
                <polygon id="Rectangle-Copy-16" transform="translate(2.813404, 3.719151) rotate(-6.000000) translate(-2.813404, -3.719151) " points="1.20493502 3.34105032 4.42666206 3.31997743 4.42187277 4.09725183 1.20014572 4.11832472"></polygon>
            </g>
        </g>
    </g>
</svg>