<?xml version="1.0" encoding="UTF-8"?>
<svg width="33px" height="17px" viewBox="0 0 33 17" version="1.1" xmlns="http://www.w3.org/2000/svg" xmlns:xlink="http://www.w3.org/1999/xlink">
    <!-- Generator: Sketch 53.2 (72643) - https://sketchapp.com -->
    <title>Group 8 Copy 7@3x</title>
    <desc>Created with Sketch.</desc>
    <g id="Page-1" stroke="none" stroke-width="1" fill="none" fill-rule="evenodd">
        <g id="Group-8-Copy-7">
            <rect id="Rectangle-Copy-6" fill="#FFC9BB" transform="translate(32.000000, 8.000000) rotate(90.000000) translate(-32.000000, -8.000000) " x="26" y="7" width="12" height="2" rx="1"></rect>
            <path d="M1.5,1 L31.5,1 C32.3284271,1 33,1.67157288 33,2.5 L33,2.5 C33,3.32842712 32.3284271,4 31.5,4 L24.7061431,4 L1.5,4 C0.671572875,4 1.01453063e-16,3.32842712 0,2.5 L0,2.5 C-1.01453063e-16,1.67157288 0.671572875,1 1.5,1 Z" id="Rectangle-Copy-4" fill="#FF241F"></path>
            <rect id="Rectangle-Copy-5" fill="#FF241F" x="4" y="12" width="29" height="3" rx="1.5"></rect>
            <polygon id="Triangle" stroke="#000000" stroke-width="0.25" fill="#FF241F" transform="translate(2.500000, 13.500000) rotate(-90.000000) translate(-2.500000, -13.500000) " points="2.5 11 5 16 0 16"></polygon>
            <rect id="Rectangle" stroke="#000000" stroke-width="0.25" fill="#FF241F" x="0.125" y="0.125" width="4.75" height="4.75" rx="1"></rect>
        </g>
    </g>
</svg>