<?xml version="1.0" encoding="UTF-8"?>
<svg width="46px" height="66px" viewBox="0 0 46 66" version="1.1" xmlns="http://www.w3.org/2000/svg" xmlns:xlink="http://www.w3.org/1999/xlink">
    <!-- Generator: Sketch 53.2 (72643) - https://sketchapp.com -->
    <title>Rectangle@3x</title>
    <desc>Created with Sketch.</desc>
    <g id="Page-1" stroke="none" stroke-width="1" fill="none" fill-rule="evenodd">
        <path d="M23.4526351,62.2258933 C24.1603989,61.1701191 25.1061051,59.5088914 26.3316007,57.141399 C29.4410536,51.1343551 34.3680566,40.5484987 41.9578326,23.5152173 C42.7578579,21.6751261 43.1707107,19.6901021 43.1707107,17.6836186 C43.1707107,9.60601366 36.6225181,3.05782106 28.5449131,3.05782106 C27.1015322,3.05782106 27.1015322,3.05782106 25.6581512,3.05782106 C24.2147702,3.05782106 24.2147702,3.05782106 22.7713892,3.05782106 C21.3547373,3.05782106 21.3547373,3.05782106 19.9380855,3.05782106 C18.5214336,3.05782106 18.5214336,3.05782106 17.1047818,3.05782106 C14.9446071,3.05782106 12.8132273,3.55341659 10.8746597,4.50646974 C3.8758621,7.94727117 0.991536324,16.4102383 4.43233776,23.4090359 L15.9813288,46.9003801 C16.1516765,47.2468775 16.3122004,47.5981172 16.4627073,47.9536765 C18.7760667,53.4187665 20.6922769,57.5009758 22.1947493,60.1762213 C22.6639708,61.0116994 23.0861198,61.6971882 23.4526351,62.2258933 Z" id="Rectangle" stroke="#0066CC" stroke-width="5"></path>
    </g>
</svg>