<?xml version="1.0" encoding="UTF-8"?>
<svg width="14px" height="9px" viewBox="0 0 14 9" version="1.1" xmlns="http://www.w3.org/2000/svg" xmlns:xlink="http://www.w3.org/1999/xlink">
    <!-- Generator: Sketch 53.2 (72643) - https://sketchapp.com -->
    <title>Group 8 Copy 19@3x</title>
    <desc>Created with Sketch.</desc>
    <g id="Page-1" stroke="none" stroke-width="1" fill="none" fill-rule="evenodd">
        <g id="Group-8-Copy-19">
            <rect id="Rectangle-Copy-4" fill="#429000" x="0" y="5" width="12" height="3" rx="1.5"></rect>
            <polygon id="Triangle" stroke="#000000" stroke-width="0.25" fill="#429000" transform="translate(12.500000, 6.500000) rotate(90.000000) translate(-12.500000, -6.500000) " points="12.5 5 14 8 11 8"></polygon>
            <rect id="Rectangle" stroke="#000000" stroke-width="0.25" fill="#429000" x="0.125" y="5.125" width="2.75" height="2.75" rx="1"></rect>
            <path d="M6.24914115,6.46892333 C6.24721332,6.47077729 6.24532702,6.47263704 6.24347909,6.47450035 C6.2486797,6.46925646 6.25483899,6.46245099 6.26187667,6.45413381 Z M6.56427288,5.98455339 C6.66249131,5.81132966 6.77443182,5.60031298 6.89920168,5.35257764 C7.02025401,5.11222361 7.13570583,4.86908959 7.24546387,4.62337201 L8.27220951,2.32477952 C8.34141772,2.16984166 8.3771883,2.00205505 8.3771883,1.83236263 C8.3771883,1.16555466 7.83663364,0.625 7.16982567,0.625 C6.9939619,0.625 6.9939619,0.625 6.81809813,0.625 C6.64223436,0.625 6.64223436,0.625 6.46637059,0.625 C6.29381841,0.625 6.29381841,0.625 6.12126622,0.625 C5.94871404,0.625 5.94871404,0.625 5.77616186,0.625 C5.59557169,0.625 5.41750628,0.66741797 5.25631129,0.748836546 C4.68789096,1.03594209 4.45984026,1.72948284 4.7469458,2.29790317 L5.83737743,4.45677307 C5.96790557,4.71519668 6.09239099,4.97662993 6.2107325,5.24086019 C6.34311684,5.53644575 6.46132642,5.78482479 6.56427288,5.98455339 Z" id="Rectangle" stroke="#FE69B4" stroke-width="1.25"></path>
        </g>
    </g>
</svg>